<?xml version="1.0" encoding="UTF-8"?>
<svg version="1.1" xmlns="http://www.w3.org/2000/svg" width="192" height="192">
<path d="M0 0 C63.36 0 126.72 0 192 0 C192 63.36 192 126.72 192 192 C128.64 192 65.28 192 0 192 C0 128.64 0 65.28 0 0 Z " fill="#219CEE" transform="translate(0,0)"/>
<path d="M0 0 C3.5461932 0.08985287 4.86289549 0.87467791 7.5 3.28515625 C9.16796198 5.13815777 10.83462745 6.99232715 12.5 8.84765625 C14.78876338 11.19693775 14.78876338 11.19693775 17.58984375 11.421875 C20.61111066 10.89303087 22.96724845 9.49840276 25.6640625 8.08984375 C37.14830852 2.73180923 51.5974133 1.99288965 63.6875 5.6875 C69.56358355 7.98158741 73.2717103 10.46517511 76.875 15.75 C78.85377319 21.46645589 78.91261787 26.60781618 76.4375 32.1875 C73.15631633 37.96698843 68.0056359 42.4602421 61.6171875 44.5234375 C48.94780696 46.83039933 37.81864774 45.21243183 27 38 C28.09746643 46.64447712 28.09746643 46.64447712 32 54 C35.28948366 54.54526767 38.4885562 54.6929895 41.8203125 54.796875 C46.60812825 55.10273055 49.65536283 56.65536283 53 60 C53.4375 62.875 53.4375 62.875 53 66 C49.8874367 69.29042406 47.41232539 70.41292589 43 71 C40.51984078 70.8965466 38.0405924 70.76974256 35.5625 70.625 C30.43920303 70.47470914 30.43920303 70.47470914 25.7578125 72.37890625 C20.43975472 78.50393299 19.53932866 84.8575903 19.69140625 92.765625 C20.1164555 97.22057157 21.09750071 100.55434295 24 104 C31.76833374 110.29566383 42.51504647 109.82364986 52 109 C63.03476814 106.8208068 72.27456219 99.55633013 79.46484375 91.15234375 C79.97144531 90.77207031 80.47804688 90.39179687 81 90 C83.19140625 90.31640625 83.19140625 90.31640625 85 91 C85.70106998 99.19472908 84.80318156 105.20304496 80 112 C72.51423111 120.75454327 60.39477971 127.30554012 49 129 C44.37169035 129.30064857 39.76185607 129.32471511 35.125 129.3125 C33.90941406 129.32861328 32.69382813 129.34472656 31.44140625 129.36132812 C19.15222363 129.36795659 8.49438098 126.72127641 -0.85546875 118.3359375 C-7.1165895 111.56465136 -8.56724561 104.07547582 -8.5 95.125 C-8.49427979 94.24239502 -8.48855957 93.35979004 -8.48266602 92.45043945 C-8.23847725 83.55358221 -5.72687111 77.80262598 0.1875 71.1875 C4.22234563 67.42045386 8.98000017 65.19183091 14 63 C13.41992188 62.38125 13.41992188 62.38125 12.828125 61.75 C6.27156385 54.47935793 2.86727915 47.56826849 2.75 37.6875 C2.72421875 36.39199219 2.6984375 35.09648438 2.671875 33.76171875 C3.01943077 29.77724008 4.19815097 27.50964551 6 24 C5.7522593 20.7612435 4.17046789 18.28650815 2.5625 15.5 C-2.49329616 6.68631355 -2.49329616 6.68631355 -2 2 C-1.34 1.34 -0.68 0.68 0 0 Z " fill="#FAFDFE" transform="translate(106,31)"/>
<path d="M0 0 C5.58372297 3.01485362 9.15226663 6.79598482 11.3828125 12.7578125 C13.66505983 21.20212762 12.56337305 27.67431847 8.4453125 35.3203125 C4.64779887 40.72224679 -0.50615937 43.03531298 -6.5546875 45.3203125 C-5.75804687 46.00996094 -4.96140625 46.69960937 -4.140625 47.41015625 C5.6634312 56.0414341 13.62322794 64.51619295 14.76171875 78.09375 C15.24765991 89.68750775 12.90413497 98.20819863 5.421875 107.21875 C-0.67584991 113.70210179 -7.17020087 117.50960391 -15.5546875 120.3203125 C-16.20381104 120.57111572 -16.85293457 120.82191895 -17.52172852 121.08032227 C-23.26874664 123.2041517 -28.38476429 123.83230758 -34.4921875 123.7578125 C-35.37100586 123.74951416 -36.24982422 123.74121582 -37.15527344 123.73266602 C-46.82139804 123.48051405 -53.69178161 121.00439902 -60.796875 114.31640625 C-67.85791536 106.29820264 -69.21973719 97.68624622 -68.95703125 87.25 C-67.93285195 77.24685075 -62.16371279 69.57547969 -54.5546875 63.3203125 C-52.18855294 62.13724522 -50.68688014 62.18676642 -48.0546875 62.1953125 C-46.86359375 62.19144531 -46.86359375 62.19144531 -45.6484375 62.1875 C-43.5546875 62.3203125 -43.5546875 62.3203125 -41.5546875 63.3203125 C-41.49996662 64.71569504 -41.46157212 66.11172147 -41.4296875 67.5078125 C-41.40648438 68.28511719 -41.38328125 69.06242187 -41.359375 69.86328125 C-41.5546875 72.3203125 -41.5546875 72.3203125 -42.54296875 74.62109375 C-43.8799983 78.18822665 -43.88451227 81.56430137 -43.8671875 85.3203125 C-43.88330078 86.01898438 -43.89941406 86.71765625 -43.91601562 87.4375 C-43.92026141 91.938034 -43.27033402 94.72588012 -40.5546875 98.3203125 C-37.72014811 101.15485189 -35.75567462 100.62030938 -31.8046875 100.6328125 C-29.98710938 100.65794922 -29.98710938 100.65794922 -28.1328125 100.68359375 C-23.0399359 100.16652222 -19.78303349 98.54865849 -16.1796875 94.9453125 C-13.48428519 88.93249196 -13.36694851 82.23921602 -15.28515625 75.91015625 C-18.55950777 68.9738769 -23.71332291 64.08212078 -29.4375 59.16796875 C-38.20832894 51.51372135 -45.82079451 43.67744814 -46.7734375 31.53125 C-47.06451745 21.94986837 -45.69532779 15.50092932 -39.4921875 8.0703125 C-28.9490651 -3.02498653 -14.14059941 -5.89535194 0 0 Z " fill="#FAFDFE" transform="translate(69.5546875,37.6796875)"/>
<path d="M0 0 C1.01964844 -0.00773437 2.03929687 -0.01546875 3.08984375 -0.0234375 C6.73232134 0.46477894 9.44272673 1.75522673 12.0625 4.375 C12.82481128 11.36285335 11.05289721 16.58153442 7.0625 22.375 C4.38671875 24.671875 4.38671875 24.671875 2.0625 26.375 C-9.33095357 14.55402472 -9.33095357 14.55402472 -10.9375 8.375 C-10.86481215 5.17673457 -10.5596723 3.97124845 -8.25 1.7578125 C-5.32914504 0.01122017 -3.38626106 -0.02562114 0 0 Z " fill="#249DEE" transform="translate(53.9375,51.625)"/>
<path d="M0 0 C0.70962891 -0.00966797 1.41925781 -0.01933594 2.15039062 -0.02929688 C5.1033664 0.01846772 7.23183434 0.08448674 9.7109375 1.7734375 C11.3428436 4.38694126 11.13207916 6.44454657 10.75 9.4375 C5.84946292 12.70452472 0.47865855 11.99481294 -5.25 11.4375 C-8.76046673 10.41287138 -11.98921331 9.08629507 -15.25 7.4375 C-15.25 6.4475 -15.25 5.4575 -15.25 4.4375 C-10.39804549 0.55593639 -6.11873777 0.02738916 0 0 Z " fill="#279FEE" transform="translate(154.25,51.5625)"/>
<path d="M0 0 C0.33 0 0.66 0 1 0 C1 3.63 1 7.26 1 11 C-2.63 11 -6.26 11 -10 11 C-9.01 10.01 -8.02 9.02 -7 8 C-6.34 8 -5.68 8 -5 8 C-4.67 7.01 -4.34 6.02 -4 5 C-3.34 5 -2.68 5 -2 5 C-1.34 3.35 -0.68 1.7 0 0 Z " fill="#000000" transform="translate(191,181)"/>
<path d="M0 0 C0.99 0.99 1.98 1.98 3 3 C3 3.66 3 4.32 3 5 C3.99 5.33 4.98 5.66 6 6 C6 6.66 6 7.32 6 8 C8.475 8.99 8.475 8.99 11 10 C11 10.33 11 10.66 11 11 C7.37 11 3.74 11 0 11 C0 7.37 0 3.74 0 0 Z " fill="#000000" transform="translate(0,181)"/>
<path d="M0 0 C3.63 0 7.26 0 11 0 C11 3.63 11 7.26 11 11 C10.01 10.01 9.02 9.02 8 8 C8 7.34 8 6.68 8 6 C7.01 5.67 6.02 5.34 5 5 C5 4.34 5 3.68 5 3 C2.525 2.01 2.525 2.01 0 1 C0 0.67 0 0.34 0 0 Z " fill="#000000" transform="translate(181,0)"/>
<path d="M0 0 C3.63 0 7.26 0 11 0 C9.515 1.485 9.515 1.485 8 3 C7.34 3 6.68 3 6 3 C5.67 3.99 5.34 4.98 5 6 C4.34 6 3.68 6 3 6 C2.34 7.65 1.68 9.3 1 11 C0.67 11 0.34 11 0 11 C0 7.37 0 3.74 0 0 Z " fill="#000000" transform="translate(0,0)"/>
</svg>
